<svg width="58" height="58" viewBox="0 0 58 58" fill="none" xmlns="http://www.w3.org/2000/svg">
<path d="M47.5752 8.12H10.425C9.81373 8.12 9.22747 8.36283 8.79521 8.79509C8.36296 9.22735 8.12012 9.81361 8.12012 10.4249V47.5757C8.12027 48.1869 8.36318 48.773 8.79542 49.2051C9.22766 49.6372 9.81384 49.88 10.425 49.88H30.4252V33.7084H24.983V27.4062H30.4252V22.758C30.4252 17.364 33.7196 14.4275 38.5313 14.4275C40.8362 14.4275 42.8169 14.5986 43.3946 14.6757V20.3128L40.0572 20.3145C37.4403 20.3145 36.9339 21.558 36.9339 23.3827V27.4067H43.1747L42.3622 33.709H36.9339V49.88H47.5758C48.187 49.8798 48.7731 49.6369 49.2052 49.2047C49.6374 48.7725 49.8801 48.1863 49.8801 47.5751V10.4249C49.8801 9.81361 49.6373 9.22735 49.205 8.79509C48.7728 8.36283 48.1865 8.12 47.5752 8.12Z" fill="#4275F0"/>
</svg>
