<svg width="153" height="154" viewBox="0 0 153 154" fill="none" xmlns="http://www.w3.org/2000/svg">
<g clip-path="url(#clip0_99_263)">
<path d="M128.425 24.0625H24.218C21.7055 24.0625 19.2959 25.0766 17.5193 26.8816C15.7427 28.6866 14.7446 31.1348 14.7446 33.6875V120.312C14.7446 122.865 15.7427 125.313 17.5193 127.118C19.2959 128.923 21.7055 129.938 24.218 129.938H128.425C130.937 129.938 133.347 128.923 135.123 127.118C136.9 125.313 137.898 122.865 137.898 120.312V33.6875C137.898 31.1348 136.9 28.6866 135.123 26.8816C133.347 25.0766 130.937 24.0625 128.425 24.0625ZM128.425 33.6875V95.498L112.989 79.8213C112.109 78.9273 111.065 78.2182 109.915 77.7343C108.766 77.2505 107.534 77.0014 106.29 77.0014C105.045 77.0014 103.813 77.2505 102.664 77.7343C101.514 78.2182 100.47 78.9273 99.5902 79.8213L87.7486 91.8526L61.6969 65.3838C59.9205 63.5802 57.5118 62.567 55.0004 62.567C52.489 62.567 50.0804 63.5802 48.3039 65.3838L24.218 89.8554V33.6875H128.425ZM24.218 103.469L55.0063 72.1875L102.373 120.312H24.218V103.469ZM128.425 120.312H115.772L94.4569 98.6562L106.299 86.625L128.425 109.111V120.312ZM85.7947 60.1562C85.7947 58.7285 86.2114 57.3328 86.9921 56.1457C87.7728 54.9586 88.8825 54.0334 90.1807 53.487C91.479 52.9406 92.9076 52.7977 94.2858 53.0762C95.6641 53.3547 96.93 54.0423 97.9237 55.0518C98.9174 56.0614 99.594 57.3476 99.8682 58.7479C100.142 60.1482 100.002 61.5997 99.4639 62.9187C98.9261 64.2378 98.0154 65.3652 96.847 66.1584C95.6786 66.9516 94.3049 67.375 92.8997 67.375C91.0153 67.375 89.2082 66.6145 87.8757 65.2607C86.5433 63.9069 85.7947 62.0708 85.7947 60.1562Z" fill="#35393E"/>
<g filter="url(#filter0_d_99_263)">
<path d="M152.108 122.5C152.108 132.165 144.617 140 135.376 140C126.135 140 118.644 132.165 118.644 122.5C118.644 112.835 126.135 105 135.376 105C144.617 105 152.108 112.835 152.108 122.5Z" fill="#D9D9D9"/>
<path d="M151.608 122.5C151.608 131.91 144.32 139.5 135.376 139.5C126.432 139.5 119.144 131.91 119.144 122.5C119.144 113.09 126.432 105.5 135.376 105.5C144.32 105.5 151.608 113.09 151.608 122.5Z" stroke="#A4A2A2"/>
</g>
<path d="M143.414 124.164H136.524V131.164H134.228V124.164H127.338V121.831H134.228V114.831H136.524V121.831H143.414V124.164Z" fill="#35393E"/>
</g>
<defs>
<filter id="filter0_d_99_263" x="114.644" y="105" width="41.4642" height="43" filterUnits="userSpaceOnUse" color-interpolation-filters="sRGB">
<feFlood flood-opacity="0" result="BackgroundImageFix"/>
<feColorMatrix in="SourceAlpha" type="matrix" values="0 0 0 0 0 0 0 0 0 0 0 0 0 0 0 0 0 0 127 0" result="hardAlpha"/>
<feOffset dy="4"/>
<feGaussianBlur stdDeviation="2"/>
<feComposite in2="hardAlpha" operator="out"/>
<feColorMatrix type="matrix" values="0 0 0 0 0 0 0 0 0 0 0 0 0 0 0 0 0 0 0.25 0"/>
<feBlend mode="normal" in2="BackgroundImageFix" result="effect1_dropShadow_99_263"/>
<feBlend mode="normal" in="SourceGraphic" in2="effect1_dropShadow_99_263" result="shape"/>
</filter>
<clipPath id="clip0_99_263">
<rect width="151.573" height="154" fill="white" transform="translate(0.534607)"/>
</clipPath>
</defs>
</svg>
