<svg width="56" height="56" viewBox="0 0 56 56" fill="none" xmlns="http://www.w3.org/2000/svg">
<path d="M18.2001 4.66666H37.8001C45.2668 4.66666 51.3334 10.7333 51.3334 18.2V37.8C51.3334 41.3893 49.9076 44.8315 47.3696 47.3695C44.8316 49.9075 41.3893 51.3333 37.8001 51.3333H18.2001C10.7334 51.3333 4.66675 45.2667 4.66675 37.8V18.2C4.66675 14.6107 6.09258 11.1685 8.63057 8.63048C11.1686 6.09249 14.6108 4.66666 18.2001 4.66666ZM17.7334 9.33332C15.5056 9.33332 13.369 10.2183 11.7937 11.7936C10.2184 13.3689 9.33342 15.5055 9.33342 17.7333V38.2667C9.33342 42.91 13.0901 46.6667 17.7334 46.6667H38.2668C40.4946 46.6667 42.6311 45.7817 44.2065 44.2064C45.7818 42.6311 46.6668 40.4945 46.6668 38.2667V17.7333C46.6668 13.09 42.9101 9.33332 38.2668 9.33332H17.7334ZM40.2501 12.8333C41.0236 12.8333 41.7655 13.1406 42.3125 13.6876C42.8595 14.2346 43.1668 14.9764 43.1668 15.75C43.1668 16.5235 42.8595 17.2654 42.3125 17.8124C41.7655 18.3594 41.0236 18.6667 40.2501 18.6667C39.4765 18.6667 38.7347 18.3594 38.1877 17.8124C37.6407 17.2654 37.3334 16.5235 37.3334 15.75C37.3334 14.9764 37.6407 14.2346 38.1877 13.6876C38.7347 13.1406 39.4765 12.8333 40.2501 12.8333ZM28.0001 16.3333C31.0943 16.3333 34.0617 17.5625 36.2497 19.7504C38.4376 21.9383 39.6668 24.9058 39.6668 28C39.6668 31.0942 38.4376 34.0616 36.2497 36.2496C34.0617 38.4375 31.0943 39.6667 28.0001 39.6667C24.9059 39.6667 21.9384 38.4375 19.7505 36.2496C17.5626 34.0616 16.3334 31.0942 16.3334 28C16.3334 24.9058 17.5626 21.9383 19.7505 19.7504C21.9384 17.5625 24.9059 16.3333 28.0001 16.3333ZM28.0001 21C26.1436 21 24.3631 21.7375 23.0503 23.0502C21.7376 24.363 21.0001 26.1435 21.0001 28C21.0001 29.8565 21.7376 31.637 23.0503 32.9497C24.3631 34.2625 26.1436 35 28.0001 35C29.8566 35 31.6371 34.2625 32.9498 32.9497C34.2626 31.637 35.0001 29.8565 35.0001 28C35.0001 26.1435 34.2626 24.363 32.9498 23.0502C31.6371 21.7375 29.8566 21 28.0001 21Z" fill="#4275F0"/>
</svg>
