<svg width="53" height="53" viewBox="0 0 53 53" fill="none" xmlns="http://www.w3.org/2000/svg">
<path d="M26.5 8.83334C28.8427 8.83334 31.0895 9.764 32.7461 11.4206C34.4027 13.0771 35.3333 15.3239 35.3333 17.6667C35.3333 20.0094 34.4027 22.2562 32.7461 23.9128C31.0895 25.5694 28.8427 26.5 26.5 26.5C24.1573 26.5 21.9105 25.5694 20.2539 23.9128C18.5973 22.2562 17.6667 20.0094 17.6667 17.6667C17.6667 15.3239 18.5973 13.0771 20.2539 11.4206C21.9105 9.764 24.1573 8.83334 26.5 8.83334ZM26.5 30.9167C36.2608 30.9167 44.1667 34.8696 44.1667 39.75V44.1667H8.83333V39.75C8.83333 34.8696 16.7392 30.9167 26.5 30.9167Z" fill="#35393E"/>
</svg>
