<svg width="116" height="115" viewBox="0 0 116 115" fill="none" xmlns="http://www.w3.org/2000/svg">
<ellipse cx="58" cy="57.5" rx="58" ry="57.5" fill="#D9D9D9"/>
<g clip-path="url(#clip0_93_40)">
<path d="M16.1805 94.9596C16.4828 95.0388 16.8041 94.995 17.0746 94.8376C17.3451 94.6803 17.543 94.422 17.6255 94.1188C20.0574 84.9917 29.941 82.6262 35.8485 81.2107C37.3289 80.8568 38.4977 80.5766 39.258 80.2465C45.9871 77.3086 48.1806 72.5823 48.837 69.1338C48.876 68.9287 48.8605 68.7168 48.7921 68.5195C48.7237 68.3223 48.6048 68.1467 48.4474 68.0105C44.9435 64.9681 41.9874 60.401 40.1221 55.1475C40.069 54.997 39.9863 54.8589 39.8789 54.7413C37.4116 52.0433 35.9949 49.191 35.9949 46.9181C35.9949 45.5905 36.4931 44.6998 37.6146 44.0277C37.7826 43.9267 37.923 43.7852 38.0232 43.6161C38.1233 43.4469 38.1801 43.2554 38.1884 43.0587C38.7102 30.9605 47.2763 21.4367 57.7832 21.375L58.0359 21.3916C68.5948 21.5388 77.1066 31.2668 77.4112 43.5361C77.4157 43.7037 77.4555 43.8685 77.528 44.0196C77.6004 44.1706 77.7038 44.3045 77.8314 44.4125C78.5705 45.0418 78.9152 45.8398 78.9152 46.9228C78.9152 48.8252 77.907 51.1646 76.0795 53.5063C75.9915 53.6184 75.9243 53.7455 75.8812 53.8816C73.9923 59.9046 70.6017 65.2222 66.5831 68.476C66.4162 68.6109 66.289 68.7889 66.2149 68.9909C66.1409 69.193 66.1229 69.4115 66.1628 69.6231C66.8192 73.0692 69.0127 77.7931 75.7418 80.7357C76.5375 81.0825 77.7724 81.3532 79.3378 81.6928C85.1863 82.9658 94.9731 85.101 97.3743 94.1188C97.4146 94.2695 97.4841 94.4107 97.5786 94.5343C97.6732 94.658 97.791 94.7617 97.9254 94.8395C98.0598 94.9174 98.2081 94.9678 98.3619 94.988C98.5157 95.0082 98.6719 94.9978 98.8217 94.9572C98.9715 94.9167 99.1118 94.8468 99.2348 94.7517C99.3577 94.6566 99.4608 94.5381 99.5382 94.4029C99.6156 94.2677 99.6658 94.1185 99.6858 93.9638C99.7059 93.8091 99.6955 93.652 99.6552 93.5013C96.8809 83.0822 85.7931 80.6668 79.8384 79.3701C78.4571 79.0685 77.2648 78.8096 76.6839 78.5531C72.2923 76.6341 69.5864 73.7105 68.6302 69.8487C72.7078 66.3266 76.1196 60.8926 78.0699 54.7983C80.1406 52.0908 81.2786 49.3026 81.2786 46.9205C81.2786 45.3316 80.7687 44.0063 79.7581 42.9708C79.1962 29.6613 69.7541 19.1805 58.0359 19.0118L57.6841 19.0071C46.1784 19.0688 36.6962 29.2742 35.8674 42.3533C34.3893 43.4458 33.6385 44.9777 33.6385 46.9228C33.6385 49.7325 35.2181 53.0931 37.983 56.1758C39.8931 61.4555 42.8539 66.0938 46.3791 69.3405C45.4275 73.2165 42.7193 76.1496 38.3182 78.071C37.7492 78.3203 36.6159 78.5935 35.3031 78.907C29.3035 80.3415 18.1402 83.0133 15.3446 93.5061C15.2639 93.8103 15.3066 94.1343 15.4633 94.4069C15.6201 94.6795 15.878 94.8783 16.1805 94.9596Z" fill="black"/>
</g>
<defs>
<clipPath id="clip0_93_40">
<rect width="85" height="76" fill="white" transform="translate(15 19)"/>
</clipPath>
</defs>
</svg>
