<svg width="116" height="115" viewBox="0 0 116 115" fill="none" xmlns="http://www.w3.org/2000/svg">
<ellipse cx="58" cy="57.5" rx="58" ry="57.5" fill="#D9D9D9"/>
<g clip-path="url(#clip0_49_221)">
<path d="M16.1806 94.9596C16.4829 95.0389 16.8042 94.9951 17.0747 94.8377C17.3452 94.6803 17.5431 94.422 17.6256 94.1189C20.0575 84.9917 29.9411 82.6262 35.8486 81.2107C37.329 80.8569 38.4978 80.5766 39.2581 80.2465C45.9872 77.3086 48.1807 72.5824 48.8371 69.1339C48.8761 68.9287 48.8606 68.7168 48.7922 68.5196C48.7238 68.3223 48.6049 68.1467 48.4475 68.0105C44.9436 64.9681 41.9875 60.401 40.1222 55.1475C40.0691 54.997 39.9864 54.8589 39.879 54.7414C37.4117 52.0434 35.995 49.191 35.995 46.9181C35.995 45.5905 36.4932 44.6999 37.6147 44.0277C37.7827 43.9267 37.9231 43.7853 38.0233 43.6161C38.1234 43.447 38.1802 43.2554 38.1885 43.0587C38.7103 30.9605 47.2764 21.4367 57.7833 21.375L58.036 21.3916C68.5949 21.5389 77.1067 31.2669 77.4112 43.5361C77.4158 43.7038 77.4556 43.8685 77.5281 44.0196C77.6005 44.1706 77.7039 44.3045 77.8315 44.4125C78.5706 45.0419 78.9153 45.8399 78.9153 46.9229C78.9153 48.8252 77.9071 51.1646 76.0796 53.5064C75.9916 53.6184 75.9244 53.7455 75.8812 53.8816C73.9924 59.9046 70.6018 65.2222 66.5832 68.476C66.4163 68.6109 66.2891 68.7889 66.215 68.991C66.141 69.193 66.123 69.4115 66.1629 69.6231C66.8193 73.0692 69.0128 77.7931 75.7419 80.7357C76.5376 81.0825 77.7725 81.3532 79.3379 81.6929C85.1864 82.9659 94.9732 85.101 97.3744 94.1189C97.4147 94.2695 97.4841 94.4107 97.5787 94.5343C97.6733 94.658 97.7911 94.7617 97.9255 94.8396C98.0599 94.9174 98.2082 94.9679 98.362 94.9881C98.5158 95.0083 98.672 94.9978 98.8218 94.9572C98.9716 94.9167 99.1119 94.8469 99.2349 94.7518C99.3578 94.6567 99.4609 94.5381 99.5383 94.4029C99.6157 94.2677 99.6659 94.1185 99.6859 93.9639C99.706 93.8092 99.6956 93.652 99.6553 93.5014C96.881 83.0822 85.7932 80.6669 79.8385 79.3701C78.4572 79.0685 77.2649 78.8096 76.684 78.5531C72.2924 76.6341 69.5865 73.7105 68.6303 69.8487C72.7079 66.3266 76.1197 60.8926 78.07 54.7984C80.1407 52.0909 81.2787 49.3026 81.2787 46.9205C81.2787 45.3316 80.7687 44.0064 79.7582 42.9709C79.1962 29.6614 69.7542 19.1805 58.036 19.0119L57.6842 19.0071C46.1785 19.0689 36.6962 29.2742 35.8675 42.3534C34.3894 43.4459 33.6386 44.9777 33.6386 46.9229C33.6386 49.7325 35.2182 53.0931 37.9831 56.1759C39.8932 61.4555 42.854 66.0939 46.3792 69.3405C45.4276 73.2165 42.7194 76.1496 38.3183 78.071C37.7493 78.3204 36.616 78.5935 35.3032 78.907C29.3036 80.3415 18.1403 83.0134 15.3447 93.5061C15.264 93.8103 15.3067 94.1344 15.4634 94.407C15.6202 94.6795 15.8781 94.8783 16.1806 94.9596Z" fill="black"/>
</g>
<defs>
<clipPath id="clip0_49_221">
<rect width="85" height="76" fill="white" transform="translate(15 19)"/>
</clipPath>
</defs>
</svg>
